<svg width="32" height="40" viewBox="0 0 32 40" fill="none" xmlns="http://www.w3.org/2000/svg">
<path d="M0 4C0 1.79086 1.79086 0 4 0H20L32 12V36C32 38.2091 30.2091 40 28 40H4C1.79086 40 0 38.2091 0 36V4Z" fill="#D92D20"/>
<path opacity="0.3" d="M20 0L32 12H24C21.7909 12 20 10.2091 20 8V0Z" fill="white"/>
<path d="M7.74907 32V25.4545H10.3315C10.8279 25.4545 11.2508 25.5494 11.6003 25.739C11.9497 25.9265 12.216 26.1875 12.3993 26.522C12.5847 26.8544 12.6773 27.2379 12.6773 27.6726C12.6773 28.1072 12.5836 28.4908 12.3961 28.8232C12.2086 29.1555 11.9369 29.4144 11.5811 29.5998C11.2274 29.7852 10.7991 29.8778 10.2963 29.8778H8.65035V28.7688H10.0726C10.3389 28.7688 10.5584 28.723 10.731 28.6314C10.9057 28.5376 11.0356 28.4087 11.1209 28.2447C11.2082 28.0785 11.2519 27.8878 11.2519 27.6726C11.2519 27.4553 11.2082 27.2656 11.1209 27.1037C11.0356 26.9396 10.9057 26.8129 10.731 26.7234C10.5562 26.6317 10.3347 26.5859 10.0662 26.5859H9.13295V32H7.74907ZM15.8965 32H13.5762V25.4545H15.9157C16.5741 25.4545 17.1408 25.5856 17.616 25.8477C18.0911 26.1076 18.4565 26.4815 18.7122 26.9695C18.97 27.4574 19.0989 28.0412 19.0989 28.7209C19.0989 29.4027 18.97 29.9886 18.7122 30.4787C18.4565 30.9687 18.089 31.3448 17.6096 31.6069C17.1323 31.869 16.5613 32 15.8965 32ZM14.9601 30.8143H15.839C16.2481 30.8143 16.5922 30.7418 16.8713 30.5969C17.1526 30.4499 17.3635 30.223 17.5041 29.9162C17.6469 29.6072 17.7183 29.2088 17.7183 28.7209C17.7183 28.2372 17.6469 27.842 17.5041 27.5352C17.3635 27.2283 17.1536 27.0025 16.8745 26.8576C16.5954 26.7127 16.2513 26.6403 15.8422 26.6403H14.9601V30.8143ZM20.1241 32V25.4545H24.4579V26.5955H21.5079V28.1552H24.1702V29.2962H21.5079V32H20.1241Z" fill="white"/>
</svg>
